<svg width="370" height="58" viewBox="0 0 370 58" fill="none" xmlns="http://www.w3.org/2000/svg">
<rect width="370" height="58" fill="#EC7979"/>
<path d="M132.635 32.5107C132.635 33.6533 132.222 34.5498 131.396 35.2002C130.569 35.8506 129.43 36.1758 127.977 36.1758C126.523 36.1758 125.334 35.9502 124.408 35.499V33.5127C124.994 33.7881 125.615 34.0049 126.271 34.1631C126.934 34.3213 127.549 34.4004 128.117 34.4004C128.949 34.4004 129.562 34.2422 129.954 33.9258C130.353 33.6094 130.552 33.1846 130.552 32.6514C130.552 32.1709 130.37 31.7637 130.007 31.4297C129.644 31.0957 128.894 30.7002 127.757 30.2432C126.585 29.7686 125.759 29.2266 125.278 28.6172C124.798 28.0078 124.558 27.2754 124.558 26.4199C124.558 25.3477 124.938 24.5039 125.7 23.8887C126.462 23.2734 127.484 22.9658 128.768 22.9658C129.998 22.9658 131.223 23.2354 132.441 23.7744L131.773 25.4883C130.631 25.0078 129.611 24.7676 128.715 24.7676C128.035 24.7676 127.52 24.917 127.168 25.2158C126.816 25.5088 126.641 25.8984 126.641 26.3848C126.641 26.7188 126.711 27.0059 126.852 27.2461C126.992 27.4805 127.224 27.7031 127.546 27.9141C127.868 28.125 128.448 28.4033 129.286 28.749C130.229 29.1416 130.921 29.5078 131.36 29.8477C131.8 30.1875 132.122 30.5713 132.327 30.999C132.532 31.4268 132.635 31.9307 132.635 32.5107ZM139.147 36.1758C137.636 36.1758 136.452 35.7363 135.597 34.8574C134.747 33.9727 134.322 32.7568 134.322 31.21C134.322 29.6221 134.718 28.374 135.509 27.4658C136.3 26.5576 137.387 26.1035 138.77 26.1035C140.053 26.1035 141.066 26.4932 141.811 27.2725C142.555 28.0518 142.927 29.124 142.927 30.4893V31.6055H136.449C136.479 32.5488 136.733 33.2754 137.214 33.7852C137.694 34.2891 138.371 34.541 139.244 34.541C139.818 34.541 140.352 34.4883 140.844 34.3828C141.342 34.2715 141.875 34.0898 142.443 33.8379V35.5166C141.939 35.7568 141.43 35.9268 140.914 36.0264C140.398 36.126 139.81 36.1758 139.147 36.1758ZM138.77 27.668C138.113 27.668 137.586 27.876 137.188 28.292C136.795 28.708 136.561 29.3145 136.484 30.1113H140.896C140.885 29.3086 140.691 28.7021 140.316 28.292C139.941 27.876 139.426 27.668 138.77 27.668ZM153.825 36H151.751V30.0234C151.751 29.2734 151.599 28.7139 151.294 28.3447C150.995 27.9756 150.518 27.791 149.861 27.791C148.988 27.791 148.35 28.0488 147.945 28.5645C147.541 29.0801 147.339 29.9443 147.339 31.1572V36H145.273V26.2793H146.891L147.181 27.5537H147.286C147.579 27.0908 147.995 26.7334 148.534 26.4814C149.073 26.2295 149.671 26.1035 150.327 26.1035C152.659 26.1035 153.825 27.29 153.825 29.6631V36ZM159.978 36.1758C158.765 36.1758 157.818 35.7363 157.139 34.8574C156.459 33.9785 156.119 32.7451 156.119 31.1572C156.119 29.5635 156.462 28.3242 157.147 27.4395C157.839 26.5488 158.794 26.1035 160.013 26.1035C161.29 26.1035 162.263 26.5752 162.931 27.5186H163.036C162.937 26.8213 162.887 26.2705 162.887 25.8662V22.3242H164.961V36H163.344L162.983 34.7256H162.887C162.225 35.6924 161.255 36.1758 159.978 36.1758ZM160.531 34.5059C161.381 34.5059 161.999 34.2686 162.386 33.7939C162.772 33.3135 162.972 32.5371 162.983 31.4648V31.1748C162.983 29.9502 162.784 29.0801 162.386 28.5645C161.987 28.0488 161.363 27.791 160.514 27.791C159.787 27.791 159.228 28.0869 158.835 28.6787C158.442 29.2646 158.246 30.1025 158.246 31.1924C158.246 32.2705 158.437 33.0938 158.817 33.6621C159.198 34.2246 159.77 34.5059 160.531 34.5059ZM178.364 36L174.638 25.2686H174.567C174.667 26.8623 174.717 28.3564 174.717 29.751V36H172.81V23.1504H175.771L179.34 33.3721H179.393L183.066 23.1504H186.037V36H184.016V29.6455C184.016 29.0068 184.03 28.1748 184.06 27.1494C184.095 26.124 184.124 25.5029 184.147 25.2861H184.077L180.219 36H178.364ZM193.446 36.1758C191.935 36.1758 190.751 35.7363 189.896 34.8574C189.046 33.9727 188.621 32.7568 188.621 31.21C188.621 29.6221 189.017 28.374 189.808 27.4658C190.599 26.5576 191.686 26.1035 193.068 26.1035C194.352 26.1035 195.365 26.4932 196.109 27.2725C196.854 28.0518 197.226 29.124 197.226 30.4893V31.6055H190.748C190.777 32.5488 191.032 33.2754 191.513 33.7852C191.993 34.2891 192.67 34.541 193.543 34.541C194.117 34.541 194.65 34.4883 195.143 34.3828C195.641 34.2715 196.174 34.0898 196.742 33.8379V35.5166C196.238 35.7568 195.729 35.9268 195.213 36.0264C194.697 36.126 194.108 36.1758 193.446 36.1758ZM193.068 27.668C192.412 27.668 191.885 27.876 191.486 28.292C191.094 28.708 190.859 29.3145 190.783 30.1113H195.195C195.184 29.3086 194.99 28.7021 194.615 28.292C194.24 27.876 193.725 27.668 193.068 27.668ZM206.103 33.2314C206.103 34.1807 205.757 34.9102 205.065 35.4199C204.374 35.9238 203.384 36.1758 202.095 36.1758C200.8 36.1758 199.76 35.9795 198.975 35.5869V33.8027C200.117 34.3301 201.181 34.5938 202.165 34.5938C203.437 34.5938 204.072 34.21 204.072 33.4424C204.072 33.1963 204.002 32.9912 203.861 32.8271C203.721 32.6631 203.489 32.4932 203.167 32.3174C202.845 32.1416 202.396 31.9424 201.822 31.7197C200.703 31.2861 199.944 30.8525 199.546 30.4189C199.153 29.9854 198.957 29.4229 198.957 28.7314C198.957 27.8994 199.291 27.2549 199.959 26.7979C200.633 26.335 201.547 26.1035 202.701 26.1035C203.844 26.1035 204.925 26.335 205.944 26.7979L205.276 28.3535C204.228 27.9199 203.346 27.7031 202.631 27.7031C201.541 27.7031 200.996 28.0137 200.996 28.6348C200.996 28.9395 201.137 29.1973 201.418 29.4082C201.705 29.6191 202.326 29.9092 203.281 30.2783C204.084 30.5889 204.667 30.873 205.03 31.1309C205.394 31.3887 205.663 31.6875 205.839 32.0273C206.015 32.3613 206.103 32.7627 206.103 33.2314ZM214.874 33.2314C214.874 34.1807 214.528 34.9102 213.837 35.4199C213.146 35.9238 212.155 36.1758 210.866 36.1758C209.571 36.1758 208.531 35.9795 207.746 35.5869V33.8027C208.889 34.3301 209.952 34.5938 210.937 34.5938C212.208 34.5938 212.844 34.21 212.844 33.4424C212.844 33.1963 212.773 32.9912 212.633 32.8271C212.492 32.6631 212.261 32.4932 211.938 32.3174C211.616 32.1416 211.168 31.9424 210.594 31.7197C209.475 31.2861 208.716 30.8525 208.317 30.4189C207.925 29.9854 207.729 29.4229 207.729 28.7314C207.729 27.8994 208.062 27.2549 208.73 26.7979C209.404 26.335 210.318 26.1035 211.473 26.1035C212.615 26.1035 213.696 26.335 214.716 26.7979L214.048 28.3535C212.999 27.9199 212.117 27.7031 211.402 27.7031C210.312 27.7031 209.768 28.0137 209.768 28.6348C209.768 28.9395 209.908 29.1973 210.189 29.4082C210.477 29.6191 211.098 29.9092 212.053 30.2783C212.855 30.5889 213.438 30.873 213.802 31.1309C214.165 31.3887 214.435 31.6875 214.61 32.0273C214.786 32.3613 214.874 32.7627 214.874 33.2314ZM223.197 36L222.784 34.6465H222.714C222.245 35.2383 221.773 35.6426 221.299 35.8594C220.824 36.0703 220.215 36.1758 219.471 36.1758C218.516 36.1758 217.769 35.918 217.229 35.4023C216.696 34.8867 216.43 34.1572 216.43 33.2139C216.43 32.2119 216.802 31.4561 217.546 30.9463C218.29 30.4365 219.424 30.1582 220.947 30.1113L222.626 30.0586V29.54C222.626 28.9189 222.479 28.4561 222.187 28.1514C221.899 27.8408 221.451 27.6855 220.842 27.6855C220.344 27.6855 219.866 27.7588 219.409 27.9053C218.952 28.0518 218.513 28.2246 218.091 28.4238L217.423 26.9473C217.95 26.6719 218.527 26.4639 219.154 26.3232C219.781 26.1768 220.373 26.1035 220.93 26.1035C222.166 26.1035 223.098 26.373 223.725 26.9121C224.357 27.4512 224.674 28.2979 224.674 29.4521V36H223.197ZM220.121 34.5938C220.871 34.5938 221.472 34.3857 221.923 33.9697C222.38 33.5479 222.608 32.959 222.608 32.2031V31.3594L221.36 31.4121C220.388 31.4473 219.679 31.6113 219.233 31.9043C218.794 32.1914 218.574 32.6338 218.574 33.2314C218.574 33.665 218.703 34.002 218.961 34.2422C219.219 34.4766 219.605 34.5938 220.121 34.5938ZM235.766 26.2793V27.4131L234.104 27.7207C234.257 27.9258 234.383 28.1777 234.482 28.4766C234.582 28.7754 234.632 29.0918 234.632 29.4258C234.632 30.4277 234.286 31.2158 233.595 31.79C232.903 32.3643 231.951 32.6514 230.738 32.6514C230.428 32.6514 230.146 32.6279 229.895 32.5811C229.449 32.8564 229.227 33.1787 229.227 33.5479C229.227 33.7705 229.329 33.9375 229.534 34.0488C229.745 34.1602 230.129 34.2158 230.686 34.2158H232.382C233.454 34.2158 234.269 34.4443 234.825 34.9014C235.382 35.3584 235.66 36.0176 235.66 36.8789C235.66 37.9805 235.206 38.8301 234.298 39.4277C233.39 40.0254 232.077 40.3242 230.36 40.3242C229.036 40.3242 228.025 40.0898 227.328 39.6211C226.631 39.1523 226.282 38.4844 226.282 37.6172C226.282 37.0195 226.47 36.5156 226.845 36.1055C227.226 35.7012 227.756 35.4199 228.436 35.2617C228.16 35.1445 227.932 34.957 227.75 34.6992C227.574 34.4355 227.486 34.1602 227.486 33.873C227.486 33.5098 227.589 33.2021 227.794 32.9502C227.999 32.6982 228.304 32.4492 228.708 32.2031C228.204 31.9863 227.794 31.6348 227.478 31.1484C227.167 30.6562 227.012 30.082 227.012 29.4258C227.012 28.3711 227.343 27.5537 228.005 26.9736C228.673 26.3936 229.622 26.1035 230.853 26.1035C231.128 26.1035 231.415 26.124 231.714 26.165C232.019 26.2002 232.247 26.2383 232.399 26.2793H235.766ZM228.128 37.5117C228.128 37.957 228.327 38.2998 228.726 38.54C229.13 38.7803 229.695 38.9004 230.422 38.9004C231.547 38.9004 232.385 38.7393 232.936 38.417C233.486 38.0947 233.762 37.667 233.762 37.1338C233.762 36.7119 233.609 36.4102 233.305 36.2285C233.006 36.0527 232.446 35.9648 231.626 35.9648H230.062C229.47 35.9648 228.998 36.1025 228.646 36.3779C228.301 36.6592 228.128 37.0371 228.128 37.5117ZM229.016 29.4258C229.016 30.0352 229.171 30.5039 229.481 30.832C229.798 31.1602 230.249 31.3242 230.835 31.3242C232.03 31.3242 232.628 30.6855 232.628 29.4082C232.628 28.7754 232.479 28.2891 232.18 27.9492C231.887 27.6035 231.438 27.4307 230.835 27.4307C230.237 27.4307 229.783 27.6006 229.473 27.9404C229.168 28.2803 229.016 28.7754 229.016 29.4258ZM241.821 36.1758C240.31 36.1758 239.126 35.7363 238.271 34.8574C237.421 33.9727 236.996 32.7568 236.996 31.21C236.996 29.6221 237.392 28.374 238.183 27.4658C238.974 26.5576 240.061 26.1035 241.443 26.1035C242.727 26.1035 243.74 26.4932 244.484 27.2725C245.229 28.0518 245.601 29.124 245.601 30.4893V31.6055H239.123C239.152 32.5488 239.407 33.2754 239.888 33.7852C240.368 34.2891 241.045 34.541 241.918 34.541C242.492 34.541 243.025 34.4883 243.518 34.3828C244.016 34.2715 244.549 34.0898 245.117 33.8379V35.5166C244.613 35.7568 244.104 35.9268 243.588 36.0264C243.072 36.126 242.483 36.1758 241.821 36.1758ZM241.443 27.668C240.787 27.668 240.26 27.876 239.861 28.292C239.469 28.708 239.234 29.3145 239.158 30.1113H243.57C243.559 29.3086 243.365 28.7021 242.99 28.292C242.615 27.876 242.1 27.668 241.443 27.668Z" fill="white"/>
</svg>
