<svg width="470" height="60" viewBox="0 0 470 60" fill="none" xmlns="http://www.w3.org/2000/svg">
<path d="M0 0H470V50C470 55.5228 465.523 60 460 60H10C4.47715 60 0 55.5228 0 50V0Z" fill="#EC7979"/>
<path d="M200.014 30.1919H203.954V35.5679C203.31 35.7778 202.69 35.9268 202.094 36.0146C201.503 36.1025 200.864 36.1465 200.175 36.1465C198.554 36.1465 197.304 35.668 196.425 34.7109C195.546 33.749 195.107 32.394 195.107 30.646C195.107 28.9224 195.602 27.5747 196.594 26.603C197.585 25.6265 198.95 25.1382 200.688 25.1382C201.806 25.1382 202.866 25.353 203.867 25.7827L203.251 27.2402C202.382 26.8398 201.513 26.6396 200.644 26.6396C199.501 26.6396 198.598 26.9985 197.934 27.7163C197.27 28.4341 196.938 29.4155 196.938 30.6606C196.938 31.9692 197.236 32.9653 197.831 33.6489C198.432 34.3276 199.294 34.667 200.417 34.667C200.983 34.667 201.589 34.5962 202.233 34.4546V31.6934H200.014V30.1919ZM209.887 36.1465C208.627 36.1465 207.641 35.7803 206.928 35.0479C206.22 34.3105 205.866 33.2974 205.866 32.0083C205.866 30.6851 206.196 29.645 206.855 28.8882C207.514 28.1313 208.42 27.7529 209.572 27.7529C210.641 27.7529 211.486 28.0776 212.106 28.7271C212.726 29.3765 213.036 30.27 213.036 31.4077V32.3379H207.639C207.663 33.124 207.875 33.7295 208.276 34.1543C208.676 34.5742 209.24 34.7842 209.968 34.7842C210.446 34.7842 210.891 34.7402 211.301 34.6523C211.716 34.5596 212.16 34.4082 212.634 34.1982V35.5972C212.214 35.7974 211.789 35.939 211.359 36.022C210.93 36.105 210.439 36.1465 209.887 36.1465ZM209.572 29.0566C209.025 29.0566 208.586 29.23 208.254 29.5767C207.927 29.9233 207.731 30.4287 207.668 31.0928H211.345C211.335 30.4238 211.174 29.9185 210.861 29.5767C210.549 29.23 210.119 29.0566 209.572 29.0566ZM218.01 34.7549C218.43 34.7549 218.849 34.689 219.269 34.5571V35.8535C219.079 35.9365 218.832 36.0049 218.53 36.0586C218.232 36.1172 217.922 36.1465 217.599 36.1465C215.969 36.1465 215.153 35.2871 215.153 33.5684V29.2031H214.047V28.4414L215.234 27.8115L215.82 26.0977H216.882V27.8994H219.189V29.2031H216.882V33.5391C216.882 33.9541 216.984 34.2617 217.189 34.4619C217.399 34.6572 217.673 34.7549 218.01 34.7549ZM231.149 33.0923C231.149 34.0444 230.805 34.7915 230.117 35.3335C229.428 35.8755 228.478 36.1465 227.267 36.1465C226.057 36.1465 225.065 35.9585 224.294 35.5825V33.9272C224.782 34.1567 225.3 34.3374 225.847 34.4692C226.398 34.6011 226.911 34.667 227.385 34.667C228.078 34.667 228.588 34.5352 228.915 34.2715C229.247 34.0078 229.413 33.6538 229.413 33.2095C229.413 32.8091 229.262 32.4697 228.959 32.1914C228.657 31.9131 228.032 31.5835 227.084 31.2026C226.108 30.8071 225.419 30.3555 225.019 29.8477C224.619 29.3398 224.418 28.7295 224.418 28.0166C224.418 27.123 224.736 26.4199 225.37 25.9072C226.005 25.3945 226.857 25.1382 227.927 25.1382C228.952 25.1382 229.973 25.3628 230.988 25.812L230.432 27.2402C229.479 26.8398 228.63 26.6396 227.883 26.6396C227.316 26.6396 226.887 26.7642 226.594 27.0132C226.301 27.2573 226.154 27.582 226.154 27.9873C226.154 28.2656 226.213 28.5049 226.33 28.7051C226.447 28.9004 226.64 29.0859 226.909 29.2617C227.177 29.4375 227.661 29.6694 228.359 29.9575C229.145 30.2847 229.721 30.5898 230.087 30.873C230.453 31.1562 230.722 31.4761 230.893 31.8325C231.064 32.189 231.149 32.6089 231.149 33.0923ZM236.057 34.7549C236.476 34.7549 236.896 34.689 237.316 34.5571V35.8535C237.126 35.9365 236.879 36.0049 236.577 36.0586C236.279 36.1172 235.969 36.1465 235.646 36.1465C234.016 36.1465 233.2 35.2871 233.2 33.5684V29.2031H232.094V28.4414L233.281 27.8115L233.867 26.0977H234.929V27.8994H237.236V29.2031H234.929V33.5391C234.929 33.9541 235.031 34.2617 235.236 34.4619C235.446 34.6572 235.72 34.7549 236.057 34.7549ZM244.011 36L243.666 34.8721H243.608C243.217 35.3652 242.824 35.7021 242.429 35.8828C242.033 36.0586 241.525 36.1465 240.905 36.1465C240.109 36.1465 239.487 35.9316 239.037 35.502C238.593 35.0723 238.371 34.4644 238.371 33.6782C238.371 32.8433 238.681 32.2134 239.301 31.7886C239.921 31.3638 240.866 31.1318 242.136 31.0928L243.535 31.0488V30.6167C243.535 30.0991 243.412 29.7134 243.168 29.4595C242.929 29.2007 242.556 29.0713 242.048 29.0713C241.633 29.0713 241.235 29.1323 240.854 29.2544C240.473 29.3765 240.107 29.5205 239.755 29.6865L239.199 28.4561C239.638 28.2266 240.119 28.0532 240.641 27.936C241.164 27.814 241.657 27.7529 242.121 27.7529C243.151 27.7529 243.928 27.9775 244.45 28.4268C244.977 28.876 245.241 29.5815 245.241 30.5435V36H244.011ZM241.447 34.8281C242.072 34.8281 242.573 34.6548 242.949 34.3081C243.329 33.9565 243.52 33.4658 243.52 32.8359V32.1328L242.48 32.1768C241.669 32.2061 241.078 32.3428 240.707 32.5869C240.341 32.8262 240.158 33.1948 240.158 33.6929C240.158 34.0542 240.266 34.335 240.48 34.5352C240.695 34.7305 241.017 34.8281 241.447 34.8281ZM251.752 27.7529C252.099 27.7529 252.385 27.7773 252.609 27.8262L252.441 29.4302C252.197 29.3716 251.943 29.3423 251.679 29.3423C250.991 29.3423 250.432 29.5669 250.002 30.0161C249.577 30.4653 249.365 31.0488 249.365 31.7666V36H247.643V27.8994H248.991L249.218 29.3276H249.306C249.575 28.8442 249.924 28.4609 250.353 28.1777C250.788 27.8945 251.254 27.7529 251.752 27.7529ZM257.136 34.7549C257.556 34.7549 257.975 34.689 258.395 34.5571V35.8535C258.205 35.9365 257.958 36.0049 257.656 36.0586C257.358 36.1172 257.048 36.1465 256.725 36.1465C255.095 36.1465 254.279 35.2871 254.279 33.5684V29.2031H253.173V28.4414L254.36 27.8115L254.946 26.0977H256.008V27.8994H258.315V29.2031H256.008V33.5391C256.008 33.9541 256.11 34.2617 256.315 34.4619C256.525 34.6572 256.799 34.7549 257.136 34.7549ZM263.559 36.1465C262.299 36.1465 261.313 35.7803 260.6 35.0479C259.892 34.3105 259.538 33.2974 259.538 32.0083C259.538 30.6851 259.868 29.645 260.527 28.8882C261.186 28.1313 262.092 27.7529 263.244 27.7529C264.313 27.7529 265.158 28.0776 265.778 28.7271C266.398 29.3765 266.708 30.27 266.708 31.4077V32.3379H261.31C261.335 33.124 261.547 33.7295 261.948 34.1543C262.348 34.5742 262.912 34.7842 263.64 34.7842C264.118 34.7842 264.562 34.7402 264.973 34.6523C265.388 34.5596 265.832 34.4082 266.306 34.1982V35.5972C265.886 35.7974 265.461 35.939 265.031 36.022C264.601 36.105 264.111 36.1465 263.559 36.1465ZM263.244 29.0566C262.697 29.0566 262.258 29.23 261.926 29.5767C261.599 29.9233 261.403 30.4287 261.34 31.0928H265.016C265.007 30.4238 264.846 29.9185 264.533 29.5767C264.221 29.23 263.791 29.0566 263.244 29.0566ZM271.396 36.1465C270.385 36.1465 269.597 35.7803 269.03 35.0479C268.464 34.3154 268.181 33.2876 268.181 31.9644C268.181 30.6362 268.466 29.6035 269.037 28.8662C269.614 28.124 270.41 27.7529 271.425 27.7529C272.49 27.7529 273.3 28.146 273.857 28.9321H273.945C273.862 28.3511 273.82 27.8921 273.82 27.5552V24.6035H275.549V36H274.201L273.901 34.938H273.82C273.268 35.7437 272.46 36.1465 271.396 36.1465ZM271.857 34.7549C272.565 34.7549 273.08 34.5571 273.403 34.1616C273.725 33.7612 273.891 33.1143 273.901 32.2207V31.979C273.901 30.9585 273.735 30.2334 273.403 29.8037C273.071 29.374 272.551 29.1592 271.843 29.1592C271.237 29.1592 270.771 29.4058 270.444 29.8989C270.117 30.3872 269.953 31.0854 269.953 31.9937C269.953 32.8921 270.112 33.5781 270.429 34.0518C270.746 34.5205 271.223 34.7549 271.857 34.7549Z" fill="white"/>
</svg>
